# xmcd
#
# Track frame offsets:
#	150
#	20682
#	41665
#	62480
#	80377
#	99602
#	117485
#	138535
#	157667
#	173622
#
# Disc length: 2550 seconds
#
# Revision: 2
# Processed by: cddbd v1.5.1PL2 Copyright (c) Steve Scherf et al.
# Submitted via: audiograbber 1.83.01
#
DISCID=7909f40a
DTITLE=Millie - Amar Es Un Juego
DYEAR=1999
DGENRE=Latin
TTITLE0=Una Carta Cualquiera
TTITLE1=Llorando Por Ti
TTITLE2=Como Vivir Sin Verte
TTITLE3=Presentimiento
TTITLE4=Sin Ti
TTITLE5=Una Voz En El Alma
TTITLE6=Llora Por El
TTITLE7=De Hoy En Adelante
TTITLE8=Para Que Me Olvide De Ti
TTITLE9=Amar Es Un Juego
EXTD=
EXTT0=
EXTT1=
EXTT2=
EXTT3=
EXTT4=
EXTT5=
EXTT6=
EXTT7=
EXTT8=
EXTT9=
PLAYORDER=
